{"title":"San.Andreas.2015.WEBRiP.XViD.ReLeNTLesS","uid":12292791,"size":1475471705,"categoryP":"video","categoryS":"movies","magnet":"?xt=urn:btih:4f6fc3dfcb3fea86086a6e3bbbb2cfc02b89a65d&amp;dn=San.Andreas.2015.WEBRiP.XViD.ReLeNTLesS&amp;tr=udp%3A%2F%2Ftracker.openbittorrent.com%3A80&amp;tr=udp%3A%2F%2Fopen.demonii.com%3A1337&amp;tr=udp%3A%2F%2Ftracker.coppersurfer.tk%3A6969&amp;tr=udp%3A%2F%2Fexodus.desync.com%3A6969","seeders":0,"leechers":0,"uploader":"TvTeam","files":4,"time":1440582975,"description":"------------------------------------------------------------------------\n\n &lt;a href=&quot; https://www.torrenting.com&quot; rel=&quot;nofollow&quot; target=&quot;_NEW&quot;&gt; https://www.torrenting.com&lt;/a&gt;\n\nSign up is OPEN - for time being. Come and have fun\n\n.......................................................................................................................P0STER\n[img]http://i.imgur.com/DDnAkzi.png[/img]\n\niMDB: http://www.imdb.com/title/tt2126355/\n\nGeneral\nComplete name               : San.Andreas.2015.WEBRiP.XViD.ReLeNTLesS.avi\nFormat                      : AVI\nFormat/Info                 : Audio Video Interleave\nFile size                   : 1.36 GiB\nDuration                    : 1h 54mn\nOverall bit rate            : 1 700 Kbps\n\nVideo\nID                          : 0\nFormat                      : MPEG-4 Visual\nFormat profile              : Advanced Simple@L5\nFormat settings, BVOP       : 1\nFormat settings, QPel       : No\nFormat settings, GMC        : No warppoints\nFormat settings, Matrix     : Default (H.263)\nMuxing mode                 : Packed bitstream\nCodec ID                    : XVID\nCodec ID/Hint               : XviD\nDuration                    : 1h 54mn\nBit rate                    : 1 500 Kbps\nWidth                       : 720 pixels\nHeight                      : 304 pixels\nDisplay aspect ratio        : 2.35:1\nFrame rate                  : 23.976 fps\nColor space                 : YUV\nChroma subsampling          : 4:2:0\nBit depth                   : 8 bits\nScan type                   : Progressive\nCompression mode            : Lossy\nBits/(Pixel*Frame)          : 0.286\nStream size                 : 1.20 GiB (88%)\nWriting library             : XviD 1.2.1 (UTC 2008-12-04)\n\nAudio\nID                          : 1\nFormat                      : AC-3\nFormat/Info                 : Audio Coding 3\nMode extension              : CM (complete main)\nFormat settings, Endianness : Big\nCodec ID                    : 2000\nDuration                    : 1h 54mn\nBit rate mode               : Constant\nBit rate                    : 192 Kbps\nChannel(s)                  : 2 channels\nChannel positions           : Front: L R\nSampling rate               : 48.0 KHz\nCompression mode            : Lossy\nStream size                 : 157 MiB (11%)\nAlignment                   : Aligned on interleaves\nInterleave, duration        : 64 ms (1.53 video frames)\nInterleave, preload duratio : 192 ms\nTitle                       : San.Andreas.2015.ReLeNTLesS.audio.English.2.0\nSample Included             : Yes\nSource                      : SRS Thanks\n\nPL0T\nIn the aftermath of a massive earthquake in California, a rescue-chopper pilot makes a dangerous journey with his ex-wife across the state in order to rescue his daughter.\n\nCAST\nDirector: Brad Peyton\nWriters: Carlton Cuse (screenplay), Andre Fabrizio (story)\nStars: Dwayne Johnson, Carla Gugino, Alexandra Daddario\n\nN0TE\nSource Wasn't perfect, plus its only 2.0 audio, but good enough.  Resized, Degrained, Brightened a touch and sharpened.\n\nSCREENS\n[img]http://i.imgur.com/mbHxDkd.png[/img]\n[img]http://i.imgur.com/8Bbro7z.png[/img]\n[img]http://i.imgur.com/DqJKt1q.png[/img]\n[img]http://i.imgur.com/qWUIL8e.png[/img]\n[img]http://i.imgur.com/K34iF18.png[/img]\n[img]http://i.imgur.com/5VMI1X2.png[/img]\n\nTRAiLER\n\nGREETZ\n\n\nHIVE-CM8, Blackjesus, M0RPH, M00SE, MiLLENiUM,\n\nMANiX, TiTAN, Anonymous, TuX, \n\nACAB, KingStoner, FooKas, 4PlayHD, \n\nGodFather, Cld.... \n\nKeep up the good work guyz","torrent":{"xt":"urn:btih:4f6fc3dfcb3fea86086a6e3bbbb2cfc02b89a65d","amp;dn":"San.Andreas.2015.WEBRiP.XViD.ReLeNTLesS","amp;tr":["udp%3A%2F%2Ftracker.openbittorrent.com%3A80","udp%3A%2F%2Fopen.demonii.com%3A1337","udp%3A%2F%2Ftracker.coppersurfer.tk%3A6969","udp%3A%2F%2Fexodus.desync.com%3A6969"],"infoHash":"4f6fc3dfcb3fea86086a6e3bbbb2cfc02b89a65d","infoHashBuffer":{"type":"Buffer","data":[79,111,195,223,203,63,234,134,8,106,110,59,187,178,207,192,43,137,166,93]},"announce":[],"urlList":[]}}